<?xml version="1.0" encoding="utf-8" standalone="yes"?>
<!DOCTYPE svg PUBLIC "-//W3C//DTD SVG 1.1//EN" "http://www.w3.org/Graphics/SVG/1.1/DTD/svg11.dtd">
<svg style="fill:none;stroke:none;fill-rule:evenodd;clip-rule:evenodd;stroke-linecap:round;stroke-linejoin:round;stroke-miterlimit:1.5;" version="1.1" xmlns="http://www.w3.org/2000/svg" xmlns:xlink="http://www.w3.org/1999/xlink" width="607" height="679" viewBox="0 0 607 679"><style class="text-font-style fontImports" data-font-family="Roboto">@import url(https://fonts.googleapis.com/css2?family=Roboto:wght@400;700&amp;amp;display=block);</style><rect id="" x="0" y="0" width="606.5" height="678.008" style="fill: #ffffff;"></rect><g id="items" style="isolation: isolate"><g id="blend" style="mix-blend-mode: normal"><g id="g-root-tf_hriyna1igejuv-fill" data-item-order="-616818"><g id="tf_hriyna1igejuv-fill-merged" stroke="none" fill="#ffffff" fill-opacity="1"><g><path d="M0 0 H606.5 V678.01 H0 V0"></path></g></g></g><g id="g-root-tf_hriyna1igejuv-stroke" data-item-order="-616818"></g><g id="g-root-cp_1_shape-1_qrjahy1igg0li-fill" data-item-order="-367184" transform="translate(14.499969482421875, 109.81640625)"><g id="cp_1_shape-1_qrjahy1igg0li-fill-merged" stroke="none" fill="#3cc583" fill-opacity="1"><g><path d="M250 28.375 H254.6C255.39 28.375 255.88 27.525 255.48 26.844L244.833 10.635C244.439 10.034 243.559 10.033 243.163 10.632L232.44 26.844C232.05 27.524 232.54 28.374 233.32 28.374 H238 V55.034C238 94.374 213.07 124.504 172 124.504 H46C26.118 124.504 10 140.301 10 160.184 V286.184C10 306.081 26.118 322.184 46 322.184 H214C233.882 322.184 250 306.066 250 286.184 V28.375"></path></g></g></g><g id="g-root-cp_1_shape-1_qrjahy1igg0li-stroke" data-item-order="-367184" transform="translate(14.499969482421875, 109.81640625)"><g id="cp_1_shape-1_qrjahy1igg0li-stroke" fill="none" stroke-linecap="round" stroke-linejoin="round" stroke-miterlimit="4" stroke="#ffffff" stroke-width="2" stroke-opacity="1"><g><path d="M 10.000031 160.1836C 10.000031 140.3014 26.117731 124.3209 45.999931 124.3209L 172.000031 124.3209C 213.070031 124.3209 238.000031 94.1909 238.000031 54.8509L 238.000031 28.1909L 233.320031 28.1909C 232.540031 28.1909 232.050031 27.3409 232.440031 26.6609L 243.163131 10.4483C 243.559231 9.8494 244.438731 9.8508 244.833031 10.451L 255.480031 26.6609C 255.880031 27.341 255.390031 28.191 254.600031 28.191L 250.000031 28.191L 250.000031 160.1836M 250.000131 286.183594C 250.000131 306.065794 233.882331 322.191394 214.000131 322.191394L 45.999931 322.191294C 26.117731 322.191294 10.000031 306.081294 10.000031 286.199194L 10.000031 286.183594M 250.000138 286.183594L 250.000138 160.183594M 10.000031 160.183594L 10.000031 286.183594"></path></g></g></g><g id="g-root-cp_3_shape-3_hwirc61igfy8f-fill" data-item-order="-367162" transform="translate(14, 386)"><g id="cp_3_shape-3_hwirc61igfy8f-fill-merged" stroke="none" fill="#1eabda" fill-opacity="1"><g><path d="M268 10C268 46 244 64.321 214 64.321 H46C26.118 64.321 10 80.423 10 100.305 H280 V10 H268"></path></g></g></g><g id="g-root-cp_3_shape-3_hwirc61igfy8f-stroke" data-item-order="-367162" transform="translate(14, 386)"><g id="cp_3_shape-3_hwirc61igfy8f-stroke" fill="none" stroke-linecap="round" stroke-linejoin="round" stroke-miterlimit="4" stroke="#ffffff" stroke-width="2" stroke-opacity="1"><g><path d="M 268 10C 268 46 244 64.3209 214 64.3209L 45.9999 64.3209C 26.1177 64.3209 10 80.4233 10 100.3055M 280 100.3055L 280 10"></path></g></g></g><g id="g-root-cp_3_shape-3_1_mcc9gm1igfy80-fill" data-item-order="-367156" transform="translate(266.302734375, 110)"><g id="cp_3_shape-3_1_mcc9gm1igfy80-fill-merged" stroke="none" fill="#1eabda" fill-opacity="1"><g><path d="M27.697 28.191 H32.297C33.087 28.191 33.577 27.341 33.177 26.661L22.53 10.451C22.136 9.851 21.256 9.849 20.86 10.448L10.137 26.661C9.747 27.341 10.237 28.191 11.017 28.191 H15.697 V286 H27.697 V28.191"></path></g></g></g><g id="g-root-cp_3_shape-3_1_mcc9gm1igfy80-stroke" data-item-order="-367156" transform="translate(266.302734375, 110)"><g id="cp_3_shape-3_1_mcc9gm1igfy80-stroke" fill="none" stroke-linecap="round" stroke-linejoin="round" stroke-miterlimit="4" stroke="#ffffff" stroke-width="2" stroke-opacity="1"><g><path d="M 15.697266 286L 15.697266 160M 27.697266 286L 27.697266 160M 15.6969 160L 15.6969 28.1909L 11.0169 28.1909C 10.2369 28.1909 9.7469 27.3409 10.1369 26.6609L 20.8599 10.4483C 21.2561 9.8494 22.1356 9.8508 22.5298 10.451L 33.1769 26.6609C 33.5769 27.341 33.0869 28.191 32.2969 28.191L 27.6969 28.191L 27.6969 160"></path></g></g></g><g id="g-root-cp_2_shape-2_dgp97q1igfz0p-fill" data-item-order="-367142" transform="translate(326.8775634765625, 109.81640625)"><g id="cp_2_shape-2_dgp97q1igfz0p-fill-merged" stroke="none" fill="#92bd39" fill-opacity="1"><g><path d="M255.622 160.184C255.622 140.301 239.505 124.504 219.623 124.504 H93.622C52.552 124.504 27.622 94.374 27.622 55.034 V28.374 H32.302C33.082 28.374 33.572 27.524 33.182 26.844L22.459 10.632C22.063 10.033 21.184 10.034 20.79 10.635L10.142 26.844C9.742 27.525 10.232 28.375 11.022 28.375 H15.622 V286.184C15.622 306.066 31.74 322.184 51.622 322.184 H219.623C239.505 322.184 255.622 306.081 255.622 286.199 V160.184"></path></g></g></g><g id="g-root-cp_2_shape-2_dgp97q1igfz0p-stroke" data-item-order="-367142" transform="translate(326.8775634765625, 109.81640625)"><g id="cp_2_shape-2_dgp97q1igfz0p-stroke" fill="none" stroke-linecap="round" stroke-linejoin="round" stroke-miterlimit="4" stroke="#ffffff" stroke-width="2" stroke-opacity="1"><g><path d="M 255.622416 160.1836C 255.622416 140.3014 239.504716 124.3209 219.622616 124.3209L 93.622416 124.3209C 52.552416 124.3209 27.622416 94.1909 27.622416 54.8509L 27.622416 28.1909L 32.302416 28.1909C 33.082416 28.1909 33.572416 27.3409 33.182416 26.6609L 22.459416 10.4483C 22.063216 9.8494 21.183716 9.8508 20.789516 10.451L 10.142416 26.6609C 9.742416 27.341 10.232416 28.191 11.022416 28.191L 15.622416 28.191L 15.622416 160.1836M 15.622437 286.183594C 15.622437 306.065794 31.740137 322.183594 51.622437 322.183594L 219.622637 322.183494C 239.504737 322.183494 255.622437 306.081294 255.622437 286.199194L 255.622437 286.183594M 15.62233 286.183594L 15.62233 160.183594M 255.62233 160.183594L 255.62233 286.183594"></path></g></g></g><g id="g-root-cp_4_shape-4_dgp97q1igfz0q-fill" data-item-order="-367120" transform="translate(302, 386)"><g id="cp_4_shape-4_dgp97q1igfz0q-fill-merged" stroke="none" fill="#7f64ea" fill-opacity="1"><g><path d="M76 64.321C46 64.321 22 46 22 10 H10 V100.305 H280C280 80.423 263.882 64.321 244 64.321 H76"></path></g></g></g><g id="g-root-cp_4_shape-4_dgp97q1igfz0q-stroke" data-item-order="-367120" transform="translate(302, 386)"><g id="cp_4_shape-4_dgp97q1igfz0q-stroke" fill="none" stroke-linecap="round" stroke-linejoin="round" stroke-miterlimit="4" stroke="#ffffff" stroke-width="2" stroke-opacity="1"><g><path d="M 22 10C 22 46 46 64.3209 76 64.3209L 244.0002 64.3209C 263.8824 64.3209 280 80.4233 280 100.3055M 10 100.3055L 10 10"></path></g></g></g><g id="g-root-cp_4_shape-4_1_90vr3a1igfzsz-fill" data-item-order="-367114" transform="translate(296.382568359375, 110)"><g id="cp_4_shape-4_1_90vr3a1igfzsz-fill-merged" stroke="none" fill="#7f64ea" fill-opacity="1"><g><path d="M27.622 28.191 H32.302C33.082 28.191 33.572 27.341 33.182 26.661L22.459 10.448C22.063 9.849 21.184 9.851 20.789 10.451L10.142 26.661C9.742 27.341 10.232 28.191 11.022 28.191 H15.622 V286 H27.623 V28.191"></path></g></g></g><g id="g-root-cp_4_shape-4_1_90vr3a1igfzsz-stroke" data-item-order="-367114" transform="translate(296.382568359375, 110)"><g id="cp_4_shape-4_1_90vr3a1igfzsz-stroke" fill="none" stroke-linecap="round" stroke-linejoin="round" stroke-miterlimit="4" stroke="#ffffff" stroke-width="2" stroke-opacity="1"><g><path d="M 27.622071 160L 27.622071 286M 15.622071 286L 15.622071 160M 27.6224 160L 27.6224 28.1909L 32.3024 28.1909C 33.0824 28.1909 33.5724 27.3409 33.1824 26.6609L 22.4594 10.4483C 22.0632 9.8494 21.1837 9.8508 20.7895 10.451L 10.1424 26.6609C 9.7424 27.341 10.2324 28.191 11.0224 28.191L 15.6224 28.191L 15.6224 160"></path></g></g></g><g id="g-root-cp_3_shape-3_2_90vr3a1igfzt0-fill" data-item-order="-367096" transform="translate(14, 386)"><g id="cp_3_shape-3_2_90vr3a1igfzt0-fill-merged" stroke="none" fill="#1eabda" fill-opacity="1"><g><path d="M10 100C10 80.118 26.118 64.321 46 64.321 H214C244 64.321 268 46 268 10 H280 V207.982C280 227.89 263.882 244.008 244 244.008 H46C26.118 244.008 10 227.906 10 208.023 V100"></path></g></g></g><g id="g-root-cp_3_shape-3_2_90vr3a1igfzt0-stroke" data-item-order="-367096" transform="translate(14, 386)"><g id="cp_3_shape-3_2_90vr3a1igfzt0-stroke" fill="none" stroke-linecap="round" stroke-linejoin="round" stroke-miterlimit="4" stroke="#ffffff" stroke-width="2" stroke-opacity="1"><g><path d="M 280 207.982445L 280 100M 10 100L 10 207.982445L 10 208M 280.0001 208.007813C 280.0001 227.890013 263.8823 244.007813 244.0001 244.007813L 45.9999 244.007713C 26.1177 244.007713 10 227.905513 10 208.023413L 10 208.007813M 268 10C 268 46 244 64.3209 214 64.3209L 45.9999 64.3209C 26.1177 64.3209 10 80.1178 10 100M 280 100L 280 10"></path></g></g></g><g id="g-root-cp_4_shape-4_2_58que1igg0lp-fill" data-item-order="-367068" transform="translate(302, 386)"><g id="cp_4_shape-4_2_58que1igg0lp-fill-merged" stroke="none" fill="#7f64ea" fill-opacity="1"><g><path d="M280 100C280 80.118 263.882 64.321 244 64.321 H76C46 64.321 22 46 22 10 H10 V208C10 227.882 26.118 244 46 244 H244C263.882 244 280 227.898 280 208.016 V100"></path></g></g></g><g id="g-root-cp_4_shape-4_2_58que1igg0lp-stroke" data-item-order="-367068" transform="translate(302, 386)"><g id="cp_4_shape-4_2_58que1igg0lp-stroke" fill="none" stroke-linecap="round" stroke-linejoin="round" stroke-miterlimit="4" stroke="#ffffff" stroke-width="2" stroke-opacity="1"><g><path d="M 22 10C 22 46 46 64.3209 76 64.3209L 244.0002 64.3209C 263.8824 64.3209 280 80.1178 280 100M 10 100L 10 10M 10 208L 10 100M 280 100L 280 208M 10 208C 10 227.8822 26.1177 244.0078 45.9999 244.0078L 244.0001 244.0077C 263.8823 244.0077 280 227.8977 280.0001 208.0156L 280.0001 208"></path></g></g></g><g id="g-root-tx_building_58que1igg0lq-fill" data-item-order="0" transform="translate(193.5703125, 38)"><g id="tx_building_58que1igg0lq-fill-merged" stroke="none" fill="#484848" fill-opacity="1"><g><text style="font: bold 25px Roboto, sans-serif; white-space: pre;" transform="translate(109.4296875, 25)" font-weight="bold" font-size="25px" font-family="Roboto, sans-serif"><tspan x="-97.43" y="14" dominant-baseline="ideographic">VPC components</tspan></text></g></g></g><g id="g-root-tx_building_58que1igg0lq-stroke" data-item-order="0" transform="translate(193.5703125, 38)"></g><g id="g-root-ic_6_1qbc9nq1igfytd-fill" data-item-order="0" transform="translate(110.5, 248)"></g><g id="g-root-ic_6_1qbc9nq1igfytd-stroke" data-item-order="0" transform="translate(110.5, 248)"><g id="ic_6_1qbc9nq1igfytd-stroke" fill="none" stroke-linecap="round" stroke-linejoin="round" stroke-miterlimit="4" stroke="#ffffff" stroke-width="2" stroke-opacity="1"><g><path d="M 13 38.998001L 27 38.998001C 27 38.998001 29 38.998001 29 40.998001L 29 54.998001C 29 54.998001 29 56.998001 27 56.998001L 13 56.998001C 13 56.998001 11 56.998001 11 54.998001L 11 40.998001C 11 40.998001 11 38.998001 13 38.998001M 41 38.998001L 55 38.998001C 55 38.998001 57 38.998001 57 40.998001L 57 54.998001C 57 54.998001 57 56.998001 55 56.998001L 41 56.998001C 41 56.998001 39 56.998001 39 54.998001L 39 40.998001C 39 40.998001 39 38.998001 41 38.998001M 29 10.998L 43 10.998C 43 10.998 45 10.998 45 12.998L 45 26.997999C 45 26.997999 45 28.997999 43 28.997999L 29 28.997999C 29 28.997999 27 28.997999 27 26.997999L 27 12.998C 27 12.998 27 10.998 29 10.998M 51 39L 51 35C 51 33.895432 50.104568 33 49 33L 19 33C 17.895432 33 17 33.895432 17 35L 17 39M 37 28.997999L 37 32.998001M 31 16.998001L 41 16.998001M 43 44.998001L 53 44.998001M 15 44.998001L 25 44.998001"></path></g></g></g><g id="g-root-ic_2_zk1xba1ighdky-fill" data-item-order="0" transform="translate(428.5, 248)"></g><g id="g-root-ic_2_zk1xba1ighdky-stroke" data-item-order="0" transform="translate(428.5, 248)"><g id="ic_2_zk1xba1ighdky-stroke" fill="none" stroke-linecap="round" stroke-linejoin="round" stroke-miterlimit="4" stroke="#ffffff" stroke-width="2" stroke-opacity="1"><g><path d="M 28.900021 40C 32.213799 40 34.900002 37.313801 34.900002 34C 34.900002 30.686199 32.213799 28 28.900021 28C 25.586319 28 22.900021 30.686199 22.900021 34C 22.900021 37.313801 25.586319 40 28.900021 40ZM 22.9 34L 17.5 34M 33.135002 29.765619L 45.5 17.617559M 38.900002 17.599979L 45.5 17.599979L 45.5 22.99996M 34.900002 34L 49.900002 34M 45.5 29.599979L 49.900002 34L 45.5 38.400002M 10 10M 33.118999 38.2188L 45.5 50.382401M 38.900002 50.400002L 45.5 50.400002L 45.5 45M 15.875999 11.876L 52.125999 11.876C 52.125999 11.876 56.125999 11.876 56.125999 15.875999L 56.125999 52.125999C 56.125999 52.125999 56.125999 56.125999 52.125999 56.125999L 15.875999 56.125999C 15.875999 56.125999 11.876 56.125999 11.876 52.125999L 11.876 15.875999C 11.876 15.875999 11.876 11.876 15.875999 11.876"></path></g></g></g><g id="g-root-tx_subnetti_1ur5rs61igfy13-fill" data-item-order="0" transform="translate(83.375, 308)"><g id="tx_subnetti_1ur5rs61igfy13-fill-merged" stroke="none" fill="#ffffff" fill-opacity="1"><g><text style="font: bold 20px Roboto, sans-serif; white-space: pre;" transform="translate(61.125, 22)" font-weight="bold" font-size="20px" font-family="Roboto, sans-serif"><tspan x="-49.13" y="12" dominant-baseline="ideographic">Subnetting</tspan></text></g></g></g><g id="g-root-tx_subnetti_1ur5rs61igfy13-stroke" data-item-order="0" transform="translate(83.375, 308)"></g><g id="g-root-tx_routingt_13zvffq1ighcso-fill" data-item-order="0" transform="translate(388.2734375, 308)"><g id="tx_routingt_13zvffq1ighcso-fill-merged" stroke="none" fill="#ffffff" fill-opacity="1"><g><text style="font: bold 20px Roboto, sans-serif; white-space: pre;" transform="translate(73.7265625, 22)" font-weight="bold" font-size="20px" font-family="Roboto, sans-serif"><tspan x="-61.73" y="12" dominant-baseline="ideographic">Routing Table</tspan></text></g></g></g><g id="g-root-tx_routingt_13zvffq1ighcso-stroke" data-item-order="0" transform="translate(388.2734375, 308)"></g><g id="g-root-tx_definesi_1qbc9nq1igfytc-fill" data-item-order="0" transform="translate(44.59375, 344)"><g id="tx_definesi_1qbc9nq1igfytc-fill-merged" stroke="none" fill="#ffffff" fill-opacity="1"><g><text style="font: 15px Roboto, sans-serif; white-space: pre;" transform="translate(99.90625, 37)" font-size="15px" font-family="Roboto, sans-serif"><tspan x="-87.91" y="-9" dominant-baseline="ideographic">Defines IP address ranges </tspan><tspan x="-86.23" y="9" dominant-baseline="ideographic">for resource isolation and </tspan><tspan x="-44.58" y="27" dominant-baseline="ideographic">organization.</tspan></text></g></g></g><g id="g-root-tx_definesi_1qbc9nq1igfytc-stroke" data-item-order="0" transform="translate(44.59375, 344)"></g><g id="g-root-tx_directsp_13zvffq1ighcsp-fill" data-item-order="0" transform="translate(362.484375, 344)"><g id="tx_directsp_13zvffq1ighcsp-fill-merged" stroke="none" fill="#ffffff" fill-opacity="1"><g><text style="font: 15px Roboto, sans-serif; white-space: pre;" transform="translate(99.515625, 37)" font-size="15px" font-family="Roboto, sans-serif"><tspan x="-69.78" y="-9" dominant-baseline="ideographic">Directs packet traffic </tspan><tspan x="-87.52" y="9" dominant-baseline="ideographic">through specified network </tspan><tspan x="-21.72" y="27" dominant-baseline="ideographic">paths.</tspan></text></g></g></g><g id="g-root-tx_directsp_13zvffq1ighcsp-stroke" data-item-order="0" transform="translate(362.484375, 344)"></g><g id="g-root-ic_wall_1414dly1igheyx-fill" data-item-order="0" transform="translate(125, 464)"></g><g id="g-root-ic_wall_1414dly1igheyx-stroke" data-item-order="0" transform="translate(125, 464)"><g id="ic_wall_1414dly1igheyx-stroke" fill="none" stroke-linecap="round" stroke-linejoin="round" stroke-miterlimit="4" stroke="#ffffff" stroke-width="2" stroke-opacity="1"><g><path d="M 24 23L 44 23C 44 23 46 23 46 25L 46 39C 46 39 46 41 44 41L 24 41C 24 41 22 41 22 39L 22 25C 22 25 22 23 24 23M 22 35L 46 35M 22 29L 46 29M 34 36L 34 41M 30 29L 30 35M 34 23L 34 29M 38 29L 38 35M 13 17.540001L 13 32.82C 13.118423 43.160465 19.686085 52.324833 29.440001 55.760002L 31.68 56.580002C 33.176018 57.139786 34.823982 57.139786 36.32 56.580002L 38.559998 55.759998C 48.313915 52.324833 54.88158 43.160465 55 32.82L 55 17.540001C 54.994053 16.319199 54.263035 15.218737 53.139999 14.74C 47.079685 12.208112 40.567623 10.935639 34 11C 27.432373 10.935639 20.920311 12.208112 14.86 14.74C 13.736967 15.218737 13.005946 16.319199 13 17.540001Z"></path></g></g></g><g id="g-root-ic_spre_4ot3hi1ighdkz-fill" data-item-order="0" transform="translate(413, 464)"></g><g id="g-root-ic_spre_4ot3hi1ighdkz-stroke" data-item-order="0" transform="translate(413, 464)"><g id="ic_spre_4ot3hi1ighdkz-stroke" fill="none" stroke-linecap="round" stroke-linejoin="round" stroke-miterlimit="4" stroke="#ffffff" stroke-width="2" stroke-opacity="1"><g><path d="M 56.400002 28.199961L 52 28.199961M 42 28.199961L 42 20.199959C 42 17.99996 43.799999 16.199961 46 16.199961L 56.400002 16.199961M 42 28.199961L 42 47.799999C 42 50 43.799999 51.799999 46 51.799999L 52 51.799999M 42 28.199961L 52 28.199961M 52 28.199961L 52 51.799999M 52 51.799999L 56.400002 51.799999M 42 40.200001L 56.400002 40.200001M 16 28.199961L 16 51.799999M 16 51.799999L 22 51.799999C 24.200001 51.799999 26 50 26 47.799999L 26 28.199961M 16 51.799999L 11.600098 51.799999M 26 28.199961L 11.600098 28.199961M 26 28.199961L 26.000099 20.199959C 26.000099 17.99996 24.2001 16.199961 22.000099 16.199961L 11.600098 16.199961M 26 40.200001L 11.600098 40.200001M 10 10M 31.9998 19.200199L 36.999802 24.200199L 31.9998 29.200199M 37 24.200199L 26 24.200199M 10 10M 31.9998 38.799801L 36.999802 43.799801L 31.9998 48.799801M 37 43.799801L 26 43.799801"></path></g></g></g><g id="g-root-tx_firewall_18gxvqe1ighe6n-fill" data-item-order="0" transform="translate(106.765625, 524)"><g id="tx_firewall_18gxvqe1ighe6n-fill-merged" stroke="none" fill="#ffffff" fill-opacity="1"><g><text style="font: bold 20px Roboto, sans-serif; white-space: pre;" transform="translate(52.234375, 22)" font-weight="bold" font-size="20px" font-family="Roboto, sans-serif"><tspan x="-40.23" y="12" dominant-baseline="ideographic">Firewalls</tspan></text></g></g></g><g id="g-root-tx_firewall_18gxvqe1ighe6n-stroke" data-item-order="0" transform="translate(106.765625, 524)"></g><g id="g-root-tx_gateways_94mlly1ighcsp-fill" data-item-order="0" transform="translate(391.2421875, 524)"><g id="tx_gateways_94mlly1ighcsp-fill-merged" stroke="none" fill="#ffffff" fill-opacity="1"><g><text style="font: bold 20px Roboto, sans-serif; white-space: pre;" transform="translate(55.7578125, 22)" font-weight="bold" font-size="20px" font-family="Roboto, sans-serif"><tspan x="-43.76" y="12" dominant-baseline="ideographic">Gateways</tspan></text></g></g></g><g id="g-root-tx_gateways_94mlly1ighcsp-stroke" data-item-order="0" transform="translate(391.2421875, 524)"></g><g id="g-root-tx_filterst_1cwrduu1ighe68-fill" data-item-order="0" transform="translate(43.546875, 560)"><g id="tx_filterst_1cwrduu1ighe68-fill-merged" stroke="none" fill="#ffffff" fill-opacity="1"><g><text style="font: 15px Roboto, sans-serif; white-space: pre;" transform="translate(115.453125, 28)" font-size="15px" font-family="Roboto, sans-serif"><tspan x="-103.45" y="0" dominant-baseline="ideographic">Filters traffic based on security </tspan><tspan x="-61.28" y="18" dominant-baseline="ideographic">rules and policies.</tspan></text></g></g></g><g id="g-root-tx_filterst_1cwrduu1ighe68-stroke" data-item-order="0" transform="translate(43.546875, 560)"></g><g id="g-root-tx_managest_94mlly1ighcsq-fill" data-item-order="0" transform="translate(334.8359375, 560)"><g id="tx_managest_94mlly1ighcsq-fill-merged" stroke="none" fill="#ffffff" fill-opacity="1"><g><text style="font: 15px Roboto, sans-serif; white-space: pre;" transform="translate(112.1640625, 28)" font-size="15px" font-family="Roboto, sans-serif"><tspan x="-100.16" y="0" dominant-baseline="ideographic">Manages traffic flow between </tspan><tspan x="-97.55" y="18" dominant-baseline="ideographic">VPCs and external networks.</tspan></text></g></g></g><g id="g-root-tx_managest_94mlly1ighcsq-stroke" data-item-order="0" transform="translate(334.8359375, 560)"></g></g></g><path id="wqvwfs61ky6qkv" d="M65.283 12.757a.35.35 0 0 0 .584.157l5.203-5.141-6.183 3.523.396 1.461zm-2.216-11.7a.35.35 0 0 0-.522.305v3.111l3.276-1.868-2.754-1.548zm3.728 2.105l-4.25 2.421v2.445l6.391-3.644-2.141-1.222zm4.708 3.303a.35.35 0 0 0 0-.609l-1.592-.9-7.365 4.199v1.782a.35.35 0 0 0 .523.305l8.435-4.777z M44.542 2.513c0-.433.355-.783.792-.783s.792.35.792.783-.355.783-.792.783-.792-.35-.792-.783zm59.171 0c0-.433.355-.783.792-.783s.792.35.792.783-.355.783-.792.783-.792-.35-.792-.783zm-85.951 7.636h-1.27v-.487c-.276.201-.864.609-1.881.609-1.202 0-2.274-.794-2.137-2.078.118-1.106 1.153-1.584 1.848-1.727l2.17-.345c0-.539-.29-.956-1.064-1.006s-1.21.305-1.571 1.017l-1.124-.605c1.218-2.631 5.029-1.764 5.029.414v4.207zm-1.27-2.86c.006.396-.062 1.112-.819 1.59-.587.37-1.841.299-1.903-.395-.049-.555.461-.791.906-.898l1.816-.297zm72.662 2.86h-1.27v-.487c-.276.201-.864.609-1.881.609-1.202 0-2.274-.794-2.137-2.078.118-1.106 1.153-1.584 1.848-1.727l2.17-.345c0-.539-.29-.956-1.064-1.006s-1.21.305-1.571 1.017l-1.124-.605c1.218-2.631 5.029-1.764 5.029.414v4.207zm-1.27-2.86c.006.396-.062 1.112-.82 1.59-.587.37-1.841.299-1.903-.395-.049-.555.461-.791.906-.898l1.816-.297zM99.096 10.149H97.85v-8.45h1.246v4.895l2.68-2.559h1.738l-2.633 2.535 2.715 3.578h-1.556l-2.077-2.707-.867.844v1.863zm6.053-6.114h-1.255v6.113h1.255V4.035zm-59.2 0h-1.255v6.113h1.255V4.035zm5.584 6.113V1.697h1.255v2.695c.361-.346 1-.485 1.47-.485 1.452 0 2.477 1.082 2.457 2.448v3.792h-1.27v-3.68c0-.408-.214-1.339-1.315-1.339-.968 0-1.342.756-1.342 1.339v3.681h-1.255zm-4.76-4.894V4.039h.621a.45.45 0 0 0 .45-.45v-.855h1.251v1.305h1.309v1.215h-1.309v3.109c0 .293.105.664.648.664.365 0 .531-.035.736-.07v1.137s-.361.113-.857.113c-1.398 0-1.777-1.051-1.777-1.788V5.254h-1.071zM36.528 4.039h-1.394l2.191 6.106h1.125l1.234-3.918 1.238 3.918h1.129l2.188-6.106h-1.383l-1.359 3.93-1.256-3.93h-1.124l-1.242 3.957-1.348-3.957zM26.212 7.141c-.02 1.566 1.187 3.129 3.223 3.129 1.566 0 2.383-.918 2.734-1.719L31.172 8c-.315.399-.801 1.094-1.738 1.094-1.145 0-1.825-.781-1.891-1.52h4.625c.074-.284.148-.995-.03-1.559-.336-1.064-1.221-2.102-2.839-2.102s-3.088 1.152-3.088 3.227zm1.363-.75h3.348c-.055-.43-.566-1.301-1.623-1.301a1.79 1.79 0 0 0-1.725 1.301zm-8.758.75c.038 1.758 1.277 3.133 3.145 3.133 1.074 0 1.723-.477 1.961-.672v.547h1.242V1.703h-1.258v2.888c-.414-.36-1.062-.68-1.93-.68-1.91 0-3.198 1.473-3.16 3.23zm1.309-.08c0 1.119.723 1.978 1.836 1.978a1.88 1.88 0 0 0 1.94-1.904c0-1.371-1.011-1.99-1.972-1.99s-1.805.798-1.805 1.916zm76.683-.028C96.771 5.275 95.532 3.9 93.664 3.9c-1.074 0-1.723.477-1.961.672v-.547h-1.242v8.22h1.258V9.583c.414.36 1.063.68 1.93.68 1.91 0 3.198-1.473 3.16-3.23zm-1.309.08c0-1.119-.723-1.978-1.836-1.978a1.88 1.88 0 0 0-1.94 1.904c0 1.371 1.011 1.99 1.972 1.99S95.5 8.231 95.5 7.113zM106.441 10.173V4.036h1.254v.382c.361-.346 1-.485 1.47-.485 1.452 0 2.477 1.082 2.457 2.448v3.792h-1.27V6.492c0-.408-.214-1.339-1.315-1.339-.969 0-1.342.756-1.342 1.339v3.681h-1.254zm-30.383-.021V1.824h1.084l4.215 5.777V1.824h1.32v8.328h-1.094l-4.207-5.796v5.796h-1.319zM5.24 10.149H4V2.377h1.014l2.664 3.597 2.654-3.592h1.03v7.766h-1.256V4.762L7.678 8.068 5.24 4.742v5.407z" transform="translate(473.5, 647.008056640625)" fill="#80808088" stroke="none"></path></svg>